PathFileType	4	(X/Y/Z)	Patient4_TMGait_0pt3_02_right_16.trc.trc
DataRate	CameraRate	NumFrames	NumMarkers	Units	OrigDataRate	OrigDataStartFrame	OrigNumFrames
51.851851851852	51.851851851852	6	33	mm	51.851851851852	53	       141
Frame#	Time	Sacral			L.Shoulder			Chest			R.Shoulder			Neck			R.ASIS			L.ASIS			R.Thigh.Superior			R.Thigh.Lateral			R.Thigh.Inferior			R.Patella			L.Thigh.Superior			L.Thigh.Lateral			L.Thigh.Inferior			L.Patella			L.Shank.Superior			L.Shank.Lateral			L.Shank.Inferior			R.Shank.Superior			R.Shank.Lateral			R.Shank.Inferior			R.Heel			R.Midfoot.Superior			R.Midfoot.Lateral			R.Toe			L.Heel			L.Midfoot.Lateral			L.Midfoot.Superior			L.Toe			L.Elbow			L.Wrist			R.Elbow			R.Wrist			
		X1	Y1	Z1	X2	Y2	Z2	X3	Y3	Z3	X4	Y4	Z4	X5	Y5	Z5	X6	Y6	Z6	X7	Y7	Z7	X8	Y8	Z8	X9	Y9	Z9	X10	Y10	Z10	X11	Y11	Z11	X12	Y12	Z12	X13	Y13	Z13	X14	Y14	Z14	X15	Y15	Z15	X16	Y16	Z16	X17	Y17	Z17	X18	Y18	Z18	X19	Y19	Z19	X20	Y20	Z20	X21	Y21	Z21	X22	Y22	Z22	X23	Y23	Z23	X24	Y24	Z24	X25	Y25	Z25	X26	Y26	Z26	X27	Y27	Z27	X28	Y28	Z28	X29	Y29	Z29	X30	Y30	Z30	X31	Y31	Z31	X32	Y32	Z32	X33	Y33	Z33	

53	31.042857142857	705.861546344461	994.802962507345	550.173566794770	901.117956352546	1416.254594496297	361.519993152643	998.485833399098	1348.163765301204	526.482772742429	915.285132332530	1425.659526601127	698.161298960991	884.644586601815	1483.134578423022	518.905951263736	940.871246646961	929.678637076578	659.662595442467	916.195554969277	953.093306867320	387.440685769129	993.140570220432	731.996585601480	614.149634699339	919.472522590637	614.165775761316	664.061562020698	997.011562766075	571.684191887535	577.516273091745	1001.389564701748	476.925586072491	577.404099639602	1004.003698053131	771.188114291373	421.453838959962	965.807320979931	643.848125047208	343.795927921307	1065.341238388384	584.342662179241	413.890400786947	1081.376216342405	497.328905859495	404.697148048819	1021.589388189059	429.199937770012	389.060173790187	887.041866412219	371.698366143246	338.717780395398	895.251977043113	238.558767026088	382.392769097927	957.453296586179	389.635711485830	581.612205963272	873.876589224746	293.280663411766	640.300033144313	899.223939896346	197.365505547690	572.186930527833	744.535621656550	43.589344275451	537.573018625153	915.764112799520	96.018674254353	578.342156173221	825.728329446230	37.515794221089	614.952698196984	1034.242214531503	42.022990797415	611.939458488862	719.571252703455	145.387187483261	419.702896191634	778.324233512319	116.812208649230	333.342463121057	881.066953661976	136.772551817449	352.551345625177	970.535196541538	40.862297752657	309.524233450640	910.905940354927	1055.179778834099	258.097189447543	1052.921058306973	840.246487766490	264.394656892519	915.089555861258	1076.199818008324	824.585363269082	1097.542932849121	891.601484351609	835.030803052265	
54	31.062142857143	704.570448082508	994.290704850042	553.672611072706	898.399631234344	1414.605702429679	361.521537815381	998.005252350218	1346.873555696210	525.265887121899	917.716342800507	1425.195073226719	698.033719910794	884.519575085512	1482.234640388255	518.891558045013	940.512197749390	928.542666735741	660.026690919285	912.739139804737	952.666769339266	387.956924548895	991.794211038521	731.008047184011	613.838536428898	918.548060827071	613.167179761336	664.318489100082	995.336889274197	570.689099441503	577.095138969076	999.473141016542	475.592034281174	576.950369066236	1001.515547424915	772.318378653136	420.462150119857	963.504093127425	644.845693716254	342.792112229908	1064.438889365181	586.462754413784	411.634967148345	1082.540732168476	501.093373381340	402.223851011574	1026.501183898798	431.498583146092	387.088585492033	895.961096422442	365.665647404808	337.891320366969	913.533280605186	233.328235306870	381.471825655651	954.653382707860	388.544528921863	581.361019768588	870.457503592330	292.785593134574	640.202046383191	894.714513120229	196.727275364640	571.961549562774	738.795927473429	43.683253986735	537.612001571011	910.025618329400	95.915080126927	578.256149201544	819.958889591933	37.546099637998	614.923676236916	1028.486719472438	41.760552763992	611.999501447335	745.353145852530	127.399200739948	420.490989676624	805.429973525135	104.023219508487	333.391667539787	906.422780491379	131.628478474309	351.730287149061	1002.575057958780	43.280649688964	307.478507597509	897.062422782356	1052.390875344945	261.306057322633	1016.672864005881	823.335147704194	269.382538255507	928.038281168875	1076.354677513610	825.194669980154	1123.904497817373	906.285702573313	830.444301423520	
55	31.081428571429	703.449956056630	994.275217533696	556.806086183092	895.797014999576	1413.520514151651	361.436309810735	997.654088339153	1345.996871204447	523.840024074957	920.327853426253	1425.085317500659	697.681919748906	884.509580579152	1481.720306295076	518.771308696068	940.096040175276	927.712787025327	660.217026086376	909.519925900574	952.549239704063	388.307008478271	989.932249521758	730.120877395203	613.544422237457	916.802373583440	612.477421200528	664.643734950974	992.763653438791	569.808397194261	576.802681867963	996.484234471437	474.538170059526	576.661346692302	998.591853572275	773.197730652848	419.406869478991	960.352808577198	645.704819269877	341.624660066244	1062.319152650325	588.113860688344	409.380376333294	1082.368798522997	504.687223875838	399.856067935679	1030.447154410293	433.810744476702	385.195519622111	905.052516801614	359.231145144371	336.383918348714	932.150374480835	228.302082686979	380.270025987498	951.031460228924	387.729244931996	581.250805589828	866.419455308328	292.388612192569	640.211465735910	889.843341430194	196.257310935386	571.843926276012	733.050995835044	43.760765636288	537.686898160251	904.257801865348	95.809224716556	578.174967046396	814.167392112164	37.564858753419	614.902878665891	1022.706621023944	41.538701263328	612.048234424493	772.276598343064	109.789550610087	420.117841458199	834.037764710196	91.356126514387	332.862093510457	932.734350766726	126.645714899872	350.848809616864	1035.498556886741	46.164376649393	306.523605599716	882.443481971212	1050.943565433732	264.015701544071	979.952321952941	810.587905493545	273.978284129661	941.238194131153	1077.305128220986	825.411928197424	1149.451949780994	923.136140018418	824.948576537085	
56	31.100714285714	702.493378010335	994.779979043254	559.530080552002	893.298710438985	1413.021860365907	361.250790120620	997.423119459727	1345.562752124294	522.192259626809	923.103892278046	1425.358550938820	697.086534398298	884.600448472584	1481.610224049804	518.527917202962	939.628493714532	927.204926994013	660.256520652967	906.590434735220	952.753787013174	388.510340858896	987.580554941594	729.348089962566	613.297909419851	914.247259501056	612.106592926124	665.045554961658	989.316119895166	569.056044239369	576.658622063850	992.451501309672	473.776722456362	576.552223381521	995.322222200999	773.836961480522	418.412316134932	956.549160460111	646.457060222867	340.364569557041	1059.127464630157	589.307620884499	407.286352214365	1080.950549792718	508.059934893528	397.769214057432	1033.388282476368	436.144874514083	383.518479557572	914.172649326008	352.800900379590	334.287685796265	950.562654494923	223.887885617434	378.903769168306	946.604950102638	387.199075084050	581.289954562427	861.774143772750	292.099240370098	640.339129264619	884.612640562822	195.963255546104	571.836965047025	727.292797189060	43.818660989853	537.794571597842	898.461526220664	95.705197397962	578.103703083460	808.352141189101	37.572090543984	614.893464861914	1016.900845021732	41.361035458412	612.083021769723	799.526880093233	93.506124068176	418.629200455674	863.315589860031	79.574596386581	331.842017245387	959.213772540753	122.273928588789	350.026401358054	1068.241194577689	49.625861311640	306.860201310564	866.997294615485	1050.912185036864	266.199163033561	943.461021897550	802.027845798049	278.062092240186	954.662788214510	1079.114772260706	825.266984809957	1173.904230569132	942.076145057425	818.650440688082	
57	31.120000000000	701.691450062227	995.790377203388	561.817056236615	890.898083446347	1413.093474826143	360.954076756321	997.300246243647	1345.564417497195	520.319585311374	926.020454813614	1426.011958317080	696.234684030368	884.775972531398	1481.892908369251	518.145060574054	939.120398469478	927.008291302166	660.161736893531	903.993189208223	953.272071457745	388.580128289520	984.783856458222	728.692276196904	613.110809749237	910.932084695354	612.046404215390	665.519828799696	985.053822722433	568.436098282541	576.665749108104	987.444008136544	473.304598053726	576.620527951887	991.817767811352	774.249892628546	417.561119206615	952.292858371921	647.131363268240	339.073115986364	1055.048104716793	590.074323120606	405.457866747748	1078.398363130360	511.159029155118	396.081194500271	1035.303470095847	438.485221579193	382.144691149335	923.095731253106	346.722632689613	331.754818928756	968.213953743379	220.376002252154	377.501148547831	941.425909616238	386.947762894896	581.473805989047	856.559729774379	291.921713580428	640.586524235193	879.042907399736	195.843370256185	571.935966188117	721.514148504978	43.856093855012	537.928564444855	892.640750527668	95.609078061836	578.051746260503	802.513906770520	37.568749928361	614.898579175851	1011.070269134709	41.228745255433	612.102750289049	826.249699434182	79.241967345863	416.214824594387	892.351721736312	69.261302700508	330.486925581012	985.041382881257	118.851524928921	349.373185128316	1099.777023561309	53.730592375499	308.530724796928	850.795498458719	1052.318946982619	267.841684114884	907.872593771529	797.449033917506	281.559826828457	968.270981539900	1081.811376641653	824.783447081403	1197.009972404734	962.950788481020	811.665396698620	
58	31.139285714286	701.036990900548	997.251787197022	563.657653612383	888.597203369302	1413.681011690879	360.537003854730	997.272234160713	1345.959262230856	518.229718812733	929.044443880042	1427.010286148170	695.120865162680	885.019567328282	1482.526443747148	517.608380832127	938.589646197081	927.088529132755	659.939961661055	901.752413907817	954.068133192623	388.521915828709	981.604805508218	728.146347943317	612.974432008051	906.942621196811	612.271561147837	666.051785492914	980.069047787082	567.942225282234	576.811128410182	981.567879370424	473.102965425706	576.848499809415	988.204569283732	774.452293563527	416.886116467262	947.768112254791	647.742479879300	337.803741986406	1050.291919943766	590.458209330640	403.940196541159	1074.842134751755	513.928958332447	394.845588859762	1036.194131189124	440.786007006568	381.106118644414	931.530236623514	341.251624122343	328.986513184572	984.573302808726	217.912950131567	376.187896029000	935.579150998027	386.954025927319	581.786138129022	850.839559668482	291.854633481240	640.946156284573	873.171893800623	195.886120038814	572.129480098009	715.710194862209	43.874775669246	538.080599529456	886.801760028707	95.528015143623	578.031277116178	796.656020346044	37.556649968935	614.921307315173	1005.217661434414	41.140104217592	612.107893787128	851.619080671741	67.395133783573	413.186836529491	920.213792063291	60.777377596330	328.997499023812	1009.416957206301	116.571707866348	348.974189482131	1129.169108937959	58.472162022054	311.400553844539	834.041660295620	1055.118215522049	268.947312157031	873.779973211559	796.449121707965	284.456190410453	982.008685229842	1085.380914479853	823.975109934793	1218.556049559142	985.524952182179	804.112237576732	
